Patient4_TMGait_0pt3_02_left_27_GRF.mot
version=1
nRows=32
nColumns=19
inDegrees=no
endheader
time	F1x	F1y	F1z	M1x	M1y	M1z	F2x	F2y	F2z	M2x	M2y	M2z	EC1x	EC1y	EC1z	EC2x	EC2y	EC2z
52.93	6.6152	4.0483	1.7555	-1.0159	-1.1487	1.6827	-10.4995	778.9958	-35.9081	315.4185	43.4345	777.8191	-0.0592	0.0182	-0.0073	-0.0462	0.0165	0.9585
52.9483	4.3623	2.488	1.2804	-0.62112	-0.95887	0.91076	-10.7043	792.2998	-37.1867	319.9786	44.7052	790.2325	-0.0592	0.0182	-0.0073	-0.0462	0.0165	0.9585
52.9666	2.4322	1.1766	0.86146	-0.2842	-0.77273	0.26993	-11.1636	807.7942	-38.2459	325.4302	45.7982	804.2921	-0.0592	0.0182	-0.0073	-0.0462	0.0165	0.9585
52.9849	0.94545	0.19173	0.5278	-0.025351	-0.61091	-0.1994	-11.7911	824.5576	-38.9479	331.4706	46.5386	819.0644	-0.0592	0.0182	-0.0073	-0.0462	0.0165	0.9585
53.0031	-0.097621	-0.46983	0.28295	0.15589	-0.48225	-0.49919	-12.4578	841.3414	-39.2064	337.6483	46.7889	833.3511	-0.0592	0.0182	-0.0073	-0.0462	0.0165	0.9585
53.0214	-0.76322	-0.85897	0.11836	0.27052	-0.39138	-0.66138	-13.0167	856.6105	-38.9936	343.3705	46.4648	845.7099	-0.0592	0.0182	-0.0073	-0.0462	0.0165	0.9585
53.0397	-1.1432	-1.0536	0.018258	0.33607	-0.33555	-0.73733	-13.3341	868.6584	-38.3483	347.9459	45.5526	854.5638	-0.0592	0.0182	-0.0073	-0.0462	0.0165	0.9585
53.058	-1.3293	-1.1448	-0.032741	0.37495	-0.31119	-0.78719	-13.3272	875.8239	-37.3679	350.6758	44.1159	858.4099	-0.0592	0.0182	-0.0073	-0.0462	0.0165	0.9585
53.0763	-1.4002	-1.2212	-0.049825	0.41194	-0.31464	-0.87442	-12.9682	876.8004	-36.1936	350.988	42.2853	856.1037	-0.0592	0.0182	-0.0073	-0.0462	0.0165	0.9585
53.0946	-1.415	-1.3643	-0.044869	0.47258	-0.34068	-1.0629	-12.2523	870.9527	-34.973	348.5805	40.2094	847.1424	-0.0592	0.0182	-0.0073	-0.0462	0.0165	0.9585
53.1129	-1.4107	-1.6424	-0.026999	0.58155	-0.38377	-1.408	-11.1769	858.4948	-33.8337	343.5045	38.0233	831.8158	-0.0592	0.0182	-0.0073	-0.0462	0.0165	0.9585
53.1311	-1.4006	-2.1099	-0.0039226	0.75879	-0.43456	-1.9597	-9.7338	840.469	-32.8751	336.1611	35.8387	811.1705	-0.0592	0.0182	-0.0073	-0.0462	0.0165	0.9585
53.1494	-1.3757	-2.8042	0.014098	1.0159	-0.473	-2.7523	-7.9118	818.5635	-32.1645	327.228	33.7384	786.8321	-0.0592	0.0182	-0.0073	-0.0462	0.0165	0.9585
53.1677	-1.3064	-3.7226	0.012779	1.3514	-0.46886	-3.7743	-5.7057	794.8226	-31.7294	317.539	31.77	760.7355	-0.0592	0.0182	-0.0073	-0.0462	0.0165	0.9585
53.186	-1.1404	-4.792	-0.022842	1.7394	-0.38446	-4.945	-3.1213	771.3328	-31.5544	307.9513	29.9441	734.8405	-0.0592	0.0182	-0.0073	-0.0462	0.0165	0.9585
53.2043	-0.79996	-5.8344	-0.10555	2.1153	-0.17581	-6.0816	-0.17632	749.9554	-31.6018	299.2296	28.2483	710.8868	-0.0592	0.0182	-0.0073	-0.0462	0.0165	0.9585
53.2226	-0.18532	-6.5272	-0.24754	2.3619	0.20778	-6.8449	3.0895	732.1332	-31.8392	291.9629	26.6728	690.2237	-0.0592	0.0182	-0.0073	-0.0462	0.0165	0.9585
53.2409	0.81185	-6.3703	-0.46194	2.2981	0.81768	-6.6998	6.6038	718.756	-32.2432	286.5084	25.2207	673.6983	-0.0592	0.0182	-0.0073	-0.0462	0.0165	0.9585
53.2591	2.2836	-4.6654	-0.75519	1.6697	1.6911	-4.8972	10.2568	710.0651	-32.7945	282.9546	23.9094	661.5684	-0.0592	0.0182	-0.0073	-0.0462	0.0165	0.9585
53.2774	4.2677	-0.52723	-1.1176	0.15396	2.828	-0.4802	13.9038	705.6117	-33.475	281.1053	22.7716	653.4695	-0.0592	0.0182	-0.0073	-0.0462	0.0165	0.9585
53.2957	6.6922	7.0519	-1.5155	-2.6143	4.1616	7.6512	17.3733	704.3002	-34.2612	280.5013	21.8452	648.4618	-0.0592	0.0182	-0.0073	-0.0462	0.0165	0.9585
53.314	9.3011	19.0443	-1.878	-6.9848	5.5156	20.5685	20.4825	704.5115	-35.104	280.4758	21.1527	645.1411	-0.0592	0.0182	-0.0073	-0.0462	0.0165	0.9585
53.3323	11.5644	36.0981	-2.0803	-13.1871	6.5559	39.0011	23.0511	704.3026	-35.9114	280.2394	20.6813	641.8056	-0.0592	0.0182	-0.0073	-0.0462	0.0165	0.9585
53.3506	12.6383	58.1497	-1.9288	-21.191	6.7589	62.9243	24.928	701.6712	-36.5573	278.9941	20.3753	636.6805	-0.0592	0.0182	-0.0073	-0.0462	0.0165	0.9585
53.3689	11.8296	84.414	-1.1675	-30.6987	5.5901	91.5394	26.0282	694.8929	-36.9178	276.0694	20.1519	628.2164	-0.0592	0.0182	-0.0073	-0.0462	0.0165	0.9585
53.3871	9.3996	113.8589	0.49448	-41.3088	2.8159	123.737	26.3563	682.811	-36.896	271.034	19.9238	615.3476	-0.0592	0.0182	-0.0073	-0.0462	0.0165	0.9585
53.4054	6.0355	144.9591	3.3092	-52.442	-1.5935	157.7884	25.9947	664.9177	-36.4213	263.7236	19.6012	597.5764	-0.0592	0.0182	-0.0073	-0.0462	0.0165	0.9585
53.4237	2.3935	175.8395	7.1483	-63.4266	-7.2423	191.5484	25.082	641.3705	-35.4543	254.2367	19.1007	574.9952	-0.0592	0.0182	-0.0073	-0.0462	0.0165	0.9585
53.442	-0.99809	205.1303	11.4012	-73.8104	-13.2345	223.4176	23.8043	612.9955	-34.0338	242.9218	18.3864	548.2856	-0.0592	0.0182	-0.0073	-0.0462	0.0165	0.9585
53.4603	-3.867	232.5584	15.4809	-83.5392	-18.802	252.9981	22.3647	581.1484	-32.2771	230.3167	17.4818	518.6056	-0.0592	0.0182	-0.0073	-0.0462	0.0165	0.9585
53.4786	-6.1845	258.7653	19.0007	-92.8744	-23.5002	280.9284	20.9504	547.4215	-30.3298	217.038	16.4403	487.3379	-0.0592	0.0182	-0.0073	-0.0462	0.0165	0.9585
53.4969	-8.0358	284.7324	21.7813	-102.1834	-27.1644	308.2547	19.6983	513.318	-28.3268	203.6594	15.3204	455.8032	-0.0592	0.0182	-0.0073	-0.0462	0.0165	0.9585
